<svg width="672" height="158" viewBox="0 0 672 158" fill="none" xmlns="http://www.w3.org/2000/svg">
<path d="M226.356 121.621V44.6211H241.426L269.476 90.2711L259.576 90.1611L287.956 44.6211H302.366V121.621H286.196V95.2211C286.196 88.6211 286.342 82.6811 286.636 77.4011C287.002 72.1211 287.589 66.8778 288.396 61.6711L290.376 66.8411L267.826 101.821H260.566L238.456 67.0611L240.326 61.6711C241.132 66.5844 241.682 71.6444 241.976 76.8511C242.342 81.9844 242.526 88.1078 242.526 95.2211V121.621H226.356ZM341.971 122.721C337.131 122.721 332.768 121.401 328.881 118.761C324.994 116.121 321.914 112.528 319.641 107.981C317.368 103.434 316.231 98.2278 316.231 92.3611C316.231 86.4944 317.368 81.3244 319.641 76.8511C321.988 72.3044 325.141 68.7478 329.101 66.1811C333.061 63.5411 337.571 62.2211 342.631 62.2211C345.491 62.2211 348.094 62.6611 350.441 63.5411C352.861 64.3478 354.951 65.4844 356.711 66.9511C358.544 68.4178 360.084 70.1044 361.331 72.0111C362.578 73.9178 363.458 75.9711 363.971 78.1711L360.671 77.6211V63.4311H376.181V121.621H360.451V107.651L363.971 107.321C363.384 109.374 362.431 111.318 361.111 113.151C359.791 114.984 358.141 116.634 356.161 118.101C354.254 119.494 352.091 120.631 349.671 121.511C347.251 122.318 344.684 122.721 341.971 122.721ZM346.261 109.191C349.194 109.191 351.761 108.494 353.961 107.101C356.161 105.708 357.848 103.764 359.021 101.271C360.268 98.7044 360.891 95.7344 360.891 92.3611C360.891 89.0611 360.268 86.1644 359.021 83.6711C357.848 81.1778 356.161 79.2344 353.961 77.8411C351.761 76.3744 349.194 75.6411 346.261 75.6411C343.401 75.6411 340.871 76.3744 338.671 77.8411C336.544 79.2344 334.858 81.1778 333.611 83.6711C332.364 86.1644 331.741 89.0611 331.741 92.3611C331.741 95.7344 332.364 98.7044 333.611 101.271C334.858 103.764 336.544 105.708 338.671 107.101C340.871 108.494 343.401 109.191 346.261 109.191ZM397.451 121.621V48.6911H413.071V121.621H397.451ZM386.561 77.4011V63.4311H424.951V77.4011H386.561ZM437.332 121.621V44.6211H452.402L480.452 90.2711L470.552 90.1611L498.932 44.6211H513.342V121.621H497.172V95.2211C497.172 88.6211 497.319 82.6811 497.612 77.4011C497.979 72.1211 498.566 66.8778 499.372 61.6711L501.352 66.8411L478.802 101.821H471.542L449.432 67.0611L451.302 61.6711C452.109 66.5844 452.659 71.6444 452.952 76.8511C453.319 81.9844 453.502 88.1078 453.502 95.2211V121.621H437.332ZM552.947 122.721C548.107 122.721 543.744 121.401 539.857 118.761C535.971 116.121 532.891 112.528 530.617 107.981C528.344 103.434 527.207 98.2278 527.207 92.3611C527.207 86.4944 528.344 81.3244 530.617 76.8511C532.964 72.3044 536.117 68.7478 540.077 66.1811C544.037 63.5411 548.547 62.2211 553.607 62.2211C556.467 62.2211 559.071 62.6611 561.417 63.5411C563.837 64.3478 565.927 65.4844 567.687 66.9511C569.521 68.4178 571.061 70.1044 572.307 72.0111C573.554 73.9178 574.434 75.9711 574.947 78.1711L571.647 77.6211V63.4311H587.157V121.621H571.427V107.651L574.947 107.321C574.361 109.374 573.407 111.318 572.087 113.151C570.767 114.984 569.117 116.634 567.137 118.101C565.231 119.494 563.067 120.631 560.647 121.511C558.227 122.318 555.661 122.721 552.947 122.721ZM557.237 109.191C560.171 109.191 562.737 108.494 564.937 107.101C567.137 105.708 568.824 103.764 569.997 101.271C571.244 98.7044 571.867 95.7344 571.867 92.3611C571.867 89.0611 571.244 86.1644 569.997 83.6711C568.824 81.1778 567.137 79.2344 564.937 77.8411C562.737 76.3744 560.171 75.6411 557.237 75.6411C554.377 75.6411 551.847 76.3744 549.647 77.8411C547.521 79.2344 545.834 81.1778 544.587 83.6711C543.341 86.1644 542.717 89.0611 542.717 92.3611C542.717 95.7344 543.341 98.7044 544.587 101.271C545.834 103.764 547.521 105.708 549.647 107.101C551.847 108.494 554.377 109.191 557.237 109.191ZM602.818 145.821V63.4311H617.888L618.328 76.5211L615.468 75.5311C615.981 73.1844 617.228 71.0211 619.208 69.0411C621.261 67.0611 623.791 65.4478 626.798 64.2011C629.804 62.9544 632.958 62.3311 636.258 62.3311C641.318 62.3311 645.791 63.6511 649.678 66.2911C653.638 68.8578 656.754 72.4144 659.028 76.9611C661.374 81.4344 662.548 86.6044 662.548 92.4711C662.548 98.2644 661.411 103.434 659.138 107.981C656.864 112.528 653.748 116.121 649.788 118.761C645.828 121.328 641.318 122.611 636.258 122.611C632.884 122.611 629.658 121.988 626.578 120.741C623.571 119.421 621.004 117.698 618.878 115.571C616.751 113.444 615.431 111.171 614.918 108.751L618.548 107.211V145.821H602.818ZM632.738 109.191C635.598 109.191 638.128 108.494 640.328 107.101C642.528 105.708 644.251 103.764 645.498 101.271C646.744 98.7044 647.368 95.7711 647.368 92.4711C647.368 89.1711 646.744 86.2744 645.498 83.7811C644.251 81.2878 642.528 79.3444 640.328 77.9511C638.201 76.5578 635.671 75.8611 632.738 75.8611C629.804 75.8611 627.238 76.5578 625.038 77.9511C622.838 79.2711 621.114 81.2144 619.868 83.7811C618.621 86.2744 617.998 89.1711 617.998 92.4711C617.998 95.7711 618.621 98.7044 619.868 101.271C621.114 103.764 622.838 105.708 625.038 107.101C627.238 108.494 629.804 109.191 632.738 109.191Z" fill="#61666D"/>
<path d="M19.8789 21.3008L176.675 34.2703L173.433 123.479H22.5825L19.8789 21.3008Z" fill="white"/>
<path d="M0.824219 145.481V0.402344L85.8112 6.33052L109.276 26.4421L131.023 12.941L187.979 21.4025V129.551L144.472 132.039V146.738L109.514 124.02L144.472 96.5493V114.418L169.743 112.872V37.4422L131.023 32.1868L108.99 52.4819L85.8112 29.876L27.303 25.1254V119.675L71.7898 116.294V96.5493L109.276 124.02L71.7898 157.5V139.186L0.824219 145.481Z" fill="url(#paint0_linear_392_3456)"/>
<defs>
<linearGradient id="paint0_linear_392_3456" x1="70.663" y1="96.3608" x2="143.698" y2="97.1769" gradientUnits="userSpaceOnUse">
<stop stop-color="#60B947"/>
<stop offset="1" stop-color="#156BB5"/>
</linearGradient>
</defs>
</svg>
