<svg width="671" height="159" viewBox="0 0 671 159" fill="none" xmlns="http://www.w3.org/2000/svg">
<path d="M225.574 122.137V45.1367H240.644L268.694 90.7867L258.794 90.6767L287.174 45.1367H301.584V122.137H285.414V95.7367C285.414 89.1367 285.561 83.1967 285.854 77.9167C286.221 72.6367 286.808 67.3934 287.614 62.1867L289.594 67.3567L267.044 102.337H259.784L237.674 67.5767L239.544 62.1867C240.351 67.1001 240.901 72.1601 241.194 77.3667C241.561 82.5001 241.744 88.6234 241.744 95.7367V122.137H225.574ZM341.19 123.237C336.35 123.237 331.986 121.917 328.1 119.277C324.213 116.637 321.133 113.043 318.86 108.497C316.586 103.95 315.45 98.7434 315.45 92.8767C315.45 87.0101 316.586 81.8401 318.86 77.3667C321.206 72.8201 324.36 69.2634 328.32 66.6967C332.28 64.0567 336.79 62.7367 341.85 62.7367C344.71 62.7367 347.313 63.1767 349.66 64.0567C352.08 64.8634 354.17 66.0001 355.93 67.4667C357.763 68.9334 359.303 70.62 360.55 72.5267C361.796 74.4334 362.676 76.4867 363.19 78.6867L359.89 78.1367V63.9467H375.4V122.137H359.67V108.167L363.19 107.837C362.603 109.89 361.65 111.833 360.33 113.667C359.01 115.5 357.36 117.15 355.38 118.617C353.473 120.01 351.31 121.147 348.89 122.027C346.47 122.833 343.903 123.237 341.19 123.237ZM345.48 109.707C348.413 109.707 350.98 109.01 353.18 107.617C355.38 106.223 357.066 104.28 358.24 101.787C359.486 99.2201 360.11 96.2501 360.11 92.8767C360.11 89.5767 359.486 86.68 358.24 84.1867C357.066 81.6934 355.38 79.7501 353.18 78.3567C350.98 76.89 348.413 76.1567 345.48 76.1567C342.62 76.1567 340.09 76.89 337.89 78.3567C335.763 79.7501 334.076 81.6934 332.83 84.1867C331.583 86.68 330.96 89.5767 330.96 92.8767C330.96 96.2501 331.583 99.2201 332.83 101.787C334.076 104.28 335.763 106.223 337.89 107.617C340.09 109.01 342.62 109.707 345.48 109.707ZM396.67 122.137V49.2067H412.29V122.137H396.67ZM385.78 77.9167V63.9467H424.17V77.9167H385.78Z" fill="#60B947"/>
<path d="M436.551 122.137V45.1367H451.621L479.671 90.7867L469.771 90.6767L498.151 45.1367H512.561V122.137H496.391V95.7367C496.391 89.1367 496.538 83.1967 496.831 77.9167C497.198 72.6367 497.784 67.3934 498.591 62.1867L500.571 67.3567L478.021 102.337H470.761L448.651 67.5767L450.521 62.1867C451.328 67.1001 451.878 72.1601 452.171 77.3667C452.538 82.5001 452.721 88.6234 452.721 95.7367V122.137H436.551ZM552.166 123.237C547.326 123.237 542.963 121.917 539.076 119.277C535.19 116.637 532.11 113.043 529.836 108.497C527.563 103.95 526.426 98.7434 526.426 92.8767C526.426 87.0101 527.563 81.8401 529.836 77.3667C532.183 72.8201 535.336 69.2634 539.296 66.6967C543.256 64.0567 547.766 62.7367 552.826 62.7367C555.686 62.7367 558.29 63.1767 560.636 64.0567C563.056 64.8634 565.146 66.0001 566.906 67.4667C568.74 68.9334 570.28 70.62 571.526 72.5267C572.773 74.4334 573.653 76.4867 574.166 78.6867L570.866 78.1367V63.9467H586.376V122.137H570.646V108.167L574.166 107.837C573.58 109.89 572.626 111.833 571.306 113.667C569.986 115.5 568.336 117.15 566.356 118.617C564.45 120.01 562.286 121.147 559.866 122.027C557.446 122.833 554.88 123.237 552.166 123.237ZM556.456 109.707C559.39 109.707 561.956 109.01 564.156 107.617C566.356 106.223 568.043 104.28 569.216 101.787C570.463 99.2201 571.086 96.2501 571.086 92.8767C571.086 89.5767 570.463 86.68 569.216 84.1867C568.043 81.6934 566.356 79.7501 564.156 78.3567C561.956 76.89 559.39 76.1567 556.456 76.1567C553.596 76.1567 551.066 76.89 548.866 78.3567C546.74 79.7501 545.053 81.6934 543.806 84.1867C542.56 86.68 541.936 89.5767 541.936 92.8767C541.936 96.2501 542.56 99.2201 543.806 101.787C545.053 104.28 546.74 106.223 548.866 107.617C551.066 109.01 553.596 109.707 556.456 109.707ZM602.037 146.337V63.9467H617.107L617.547 77.0367L614.687 76.0467C615.2 73.7 616.447 71.5367 618.427 69.5567C620.48 67.5767 623.01 65.9634 626.017 64.7167C629.023 63.47 632.177 62.8467 635.477 62.8467C640.537 62.8467 645.01 64.1667 648.897 66.8067C652.857 69.3734 655.973 72.93 658.247 77.4767C660.593 81.95 661.767 87.12 661.767 92.9867C661.767 98.7801 660.63 103.95 658.357 108.497C656.083 113.043 652.967 116.637 649.007 119.277C645.047 121.843 640.537 123.127 635.477 123.127C632.103 123.127 628.877 122.503 625.797 121.257C622.79 119.937 620.223 118.213 618.097 116.087C615.97 113.96 614.65 111.687 614.137 109.267L617.767 107.727V146.337H602.037ZM631.957 109.707C634.817 109.707 637.347 109.01 639.547 107.617C641.747 106.223 643.47 104.28 644.717 101.787C645.963 99.2201 646.587 96.2867 646.587 92.9867C646.587 89.6867 645.963 86.7901 644.717 84.2967C643.47 81.8034 641.747 79.8601 639.547 78.4667C637.42 77.0734 634.89 76.3767 631.957 76.3767C629.023 76.3767 626.457 77.0734 624.257 78.4667C622.057 79.7867 620.333 81.7301 619.087 84.2967C617.84 86.7901 617.217 89.6867 617.217 92.9867C617.217 96.2867 617.84 99.2201 619.087 101.787C620.333 104.28 622.057 106.223 624.257 107.617C626.457 109.01 629.023 109.707 631.957 109.707Z" fill="#156BB5"/>
<path d="M19.0977 21.8164L175.894 34.7859L172.651 123.994H21.8013L19.0977 21.8164Z" fill="white"/>
<path d="M0.0429688 145.997V0.917969L85.03 6.84615L108.494 26.9578L130.242 13.4567L187.197 21.9181V130.066L143.691 132.554V147.254L108.733 124.535L143.691 97.0649V114.933L168.962 113.388V37.9578L130.242 32.7025L108.208 52.9976L85.03 30.3916L26.5217 25.641V120.19L71.0086 116.809V97.0649L108.494 124.535L71.0086 158.015V139.701L0.0429688 145.997Z" fill="url(#paint0_linear_392_3456)"/>
<defs>
<linearGradient id="paint0_linear_392_3456" x1="69.8817" y1="96.8765" x2="142.917" y2="97.6925" gradientUnits="userSpaceOnUse">
<stop stop-color="#60B947"/>
<stop offset="1" stop-color="#156BB5"/>
</linearGradient>
</defs>
</svg>
